<?xml version="1.0" encoding="UTF-8" standalone="no"?>
<svg
   xmlns:dc="http://purl.org/dc/elements/1.1/"
   xmlns:cc="http://creativecommons.org/ns#"
   xmlns:rdf="http://www.w3.org/1999/02/22-rdf-syntax-ns#"
   xmlns:svg="http://www.w3.org/2000/svg"
   xmlns="http://www.w3.org/2000/svg"
   width="132.81123mm"
   height="96.59317mm"
   viewBox="0 0 132.81123 96.59317"
   version="1.1"
   id="svg1756">
  <defs
     id="defs1750" />
  <metadata
     id="metadata1753">
    <rdf:RDF>
      <cc:Work
         rdf:about="">
        <dc:format>image/svg+xml</dc:format>
        <dc:type
           rdf:resource="http://purl.org/dc/dcmitype/StillImage" />
        <dc:title></dc:title>
      </cc:Work>
    </rdf:RDF>
  </metadata>
  <g
     id="layer1"
     transform="translate(-105.19557,-115.74501)">
    <path
       id="path851-0-6"
       style="fill:#edf7f2;fill-opacity:1;stroke-width:0.238125;stroke-miterlimit:4;stroke-dasharray:none"
       d="m 123.61232,115.74998 c -1.47912,0.0141 -2.85189,0.70109 -4.03598,1.53716 -4.00391,2.56739 -8.02015,5.11583 -12.00129,7.71809 -2.25231,1.69772 -3.03363,5.03857 -1.78839,7.56549 0.95128,2.03942 3.09078,3.44067 5.33288,3.54494 10.1844,18.85173 20.36879,37.70347 30.55319,56.5552 -0.17706,4.60564 -0.37738,9.21081 -0.51263,13.81776 0.1179,2.7444 2.30449,5.23669 5.00382,5.72885 1.08387,0.16156 2.18541,0.11461 3.2779,0.11367 9.55067,0.006 19.10152,1e-4 28.65226,7.9e-4 8.47206,-0.004 16.94434,-0.002 25.41627,-0.0106 2.76958,-0.12198 5.27341,-2.35911 5.72836,-5.08982 0.20175,-1.42794 -0.005,-2.86892 -0.0217,-4.30181 -0.0717,-1.84879 -0.14695,-3.69743 -0.21445,-5.54637 6.30968,-0.10439 12.57956,-2.27975 17.55291,-6.17377 5.21303,-4.03279 9.04094,-9.84545 10.59754,-16.25722 1.52882,-6.18022 0.99846,-12.8588 -1.54247,-18.70102 -2.3409,-5.44828 -6.36844,-10.15475 -11.39057,-13.30807 -4.28255,-2.70979 -9.27569,-4.2911 -14.34108,-4.50623 -1.06252,-0.0497 -2.12773,-0.0388 -3.18937,0.0254 -0.052,-1.1292 -0.059,-2.26603 -0.2295,-3.38503 -0.55589,-2.70389 -3.12967,-4.85182 -5.89793,-4.86712 -6.91407,-0.014 -13.82816,-0.009 -20.74225,-0.009 -0.005,-2.44951 0.0225,-4.90031 -0.0445,-7.34882 -0.27895,-2.74067 -2.62334,-5.10663 -5.35776,-5.42353 -0.96803,-0.0745 -1.94228,-0.0395 -2.91102,0.0102 -4.22834,0.25759 -8.4074,1.30666 -12.25111,3.08904 -3.85347,1.77824 -7.37047,4.28265 -10.29846,7.35589 -1.70204,1.77677 -3.23191,3.72992 -4.46857,5.85923 -0.62466,1.23902 -0.62146,2.65945 -0.66278,4.01306 -2.0991,0 -4.1982,0 -6.2973,0 -2.72538,-4.32776 -5.4508,-8.65549 -8.17622,-12.98322 1.02828,-2.01799 0.85598,-4.60687 -0.49861,-6.43463 -1.17999,-1.65216 -3.2068,-2.67322 -5.2411,-2.58859 z m 70.7993,26.88724 c 0.64389,16.44138 1.28778,32.88275 1.93167,49.32412 -14.06633,0 -28.13264,0 -42.19898,0 0.64373,-16.44137 1.28744,-32.88274 1.93114,-49.32412 12.77874,0 25.55746,0 38.33617,0 z m 14.4322,16.14062 c 3.05152,0.096 6.00411,1.8442 7.52875,4.49378 0.0755,0.13173 0.19576,0.3425 0.28008,0.50902 0.1397,0.27734 0.278,0.58508 0.37513,0.84467 0.63259,1.62682 0.78383,3.43805 0.41447,5.14514 -0.0169,0.0777 -0.0625,0.28232 -0.0965,0.40707 -0.52369,2.05465 -1.79806,3.90029 -3.52505,5.12876 -1.08127,0.77945 -2.33622,1.31316 -3.64622,1.55728 -0.10475,0.0177 -0.30903,0.0544 -0.45313,0.0719 -0.50374,0.0671 -1.01309,0.0911 -1.5209,0.0717 -0.2372,-6.05614 -0.4744,-12.11227 -0.7116,-18.1684 0.44942,-0.0501 0.90287,-0.0711 1.35496,-0.061 z" />
    <path
       id="path851-0-2-1"
       d="m 123.44349,119.57554 c -0.38208,-0.009 -0.77097,0.0911 -1.11723,0.31264 l -12.39512,7.93647 c -0.92286,0.59108 -1.19181,1.8183 -0.601,2.74143 0.37888,0.59161 1.01899,0.91468 1.67278,0.91468 0.36618,0 0.73715,-0.10148 1.06868,-0.31368 l 0.74207,-0.47491 32.72719,60.5777 -0.5638,14.3645 c -0.0212,0.53949 0.17883,1.06421 0.55295,1.45314 0.37412,0.38921 0.89014,0.60875 1.42989,0.60875 h 55.75474 c 0.53975,0 1.05627,-0.21954 1.43039,-0.60875 0.37412,-0.3892 0.57359,-0.91392 0.55243,-1.45314 l -0.51729,-13.19196 c 1.29619,0.20267 2.61075,0.30696 3.93155,0.30696 13.92817,0 25.25943,-11.33124 25.25943,-25.25944 0,-13.92819 -11.33153,-25.25996 -25.25943,-25.25996 -1.99311,0 -3.95928,0.23631 -5.87407,0.69298 l -0.27387,-6.98613 c -0.0418,-1.06469 -0.9171,-1.90686 -1.98284,-1.90686 h -24.80106 v -10.84275 c 0,-1.09591 -0.88847,-1.98438 -1.98438,-1.98438 -10.21291,0 -19.62226,5.13504 -25.17005,13.73612 -0.003,0.005 -0.005,0.0107 -0.008,0.016 -0.18124,0.28601 -0.29318,0.62043 -0.30747,0.98185 l -0.22169,5.64823 h -12.70254 l -11.20294,-17.78857 0.88366,-0.56586 c 0.92287,-0.59107 1.19181,-1.81778 0.601,-2.74091 -0.36941,-0.57663 -0.98737,-0.8984 -1.6242,-0.91416 z m 47.76764,5.67097 v 8.78396 h -17.54621 c 4.46722,-5.11175 10.73451,-8.26855 17.54621,-8.78396 z m -50.97052,0.6904 26.22835,41.64656 -0.14107,3.60081 -0.48213,12.30106 -29.68088,-54.93929 z m 31.36034,12.06231 h 46.47211 l 2.0407,52.03921 c 0,0.0151 0.003,0.0304 0.003,0.0455 l 0.22376,5.70611 h -13.81157 -37.19306 l 0.95805,-24.44812 v -0.002 z m -14.31488,7.55458 h 10.04692 l -0.5886,15.01872 z m 70.82512,0.64492 c 11.73956,0 21.29068,9.55113 21.29068,21.29069 2.6e-4,11.73983 -9.55062,21.2907 -21.29015,21.2907 -1.37875,0 -2.74926,-0.13238 -4.0907,-0.39326 l -0.16073,-4.1026 c 1.38139,0.35031 2.80336,0.52762 4.25143,0.52762 9.5517,0 17.32245,-7.77073 17.32245,-17.32246 0,-9.55172 -7.77075,-17.32245 -17.32245,-17.32245 -1.8931,0 -3.77169,0.314 -5.55366,0.91725 l -0.16123,-4.10517 c 1.85208,-0.51488 3.76729,-0.78032 5.71436,-0.78032 z m 0,7.93699 c 7.36335,0 13.35371,5.99035 13.35371,13.3537 0,7.36336 -5.99036,13.35371 -13.35371,13.35371 -1.52003,0 -3.00154,-0.25471 -4.41627,-0.75292 l -0.97305,-24.81038 c 1.68989,-0.74718 3.52956,-1.14411 5.38932,-1.14411 z m -58.93231,45.62305 h 37.34861 13.96711 l 0.15555,3.96875 H 149.0228 Z"
       style="stroke-width:0.238125;stroke-miterlimit:4;stroke-dasharray:none" />
    <path
       id="path851-5-9-3-2"
       d="m 208.11119,146.19872 c -1.94707,0 -3.86281,0.26544 -5.71489,0.78032 l 0.16123,4.10517 c 1.78197,-0.60325 3.66057,-0.91725 5.55366,-0.91725 0.76332,0 1.51352,0.0547 2.25105,0.15089 3.13573,0.40901 6.00959,1.65829 8.38861,3.51607 4.06316,3.17288 6.6828,8.11257 6.6828,13.65549 0,9.55173 -7.77074,17.32298 -17.32246,17.32298 -1.44807,0 -2.87002,-0.17783 -4.2514,-0.52814 l 0.1607,4.1026 c 1.34144,0.26088 2.71196,0.39326 4.0907,0.39326 11.73956,0 21.29044,-9.55087 21.29017,-21.2907 0,-11.73956 -9.55061,-21.29069 -21.29017,-21.29069 z m 5.48082,44.45465 c 0.003,0.005 0.004,0.0107 0.007,0.016 0.0116,-0.004 0.023,-0.009 0.0346,-0.0134 -0.0135,-0.001 -0.0277,-0.001 -0.0413,-0.003 z"
       style="fill:#7fc7bd;fill-opacity:1;stroke:#7fc7bd;stroke-width:0.264583;stroke-opacity:1" />
    <path
       style="fill:#7fc7bd;fill-opacity:1;stroke:#000000;stroke-width:0.264583px;stroke-linecap:butt;stroke-linejoin:miter;stroke-opacity:1"
       d="m 151.60095,137.99922 -2.26599,57.79079 h 51.00468 l -2.26658,-57.79079 z"
       id="path1161-3-7-9" />
    <path
       style="fill:#7fc7bd;fill-opacity:1;stroke:#000000;stroke-width:0.264583px;stroke-linecap:butt;stroke-linejoin:miter;stroke-opacity:1"
       d="m 149.17941,199.75876 h 51.31572 l 0.15555,3.96875 h -51.62735 z"
       id="path1167-6-5-3" />
    <path
       style="fill:#4cb6c2;fill-opacity:1;stroke:#000000;stroke-width:0.264583px;stroke-linecap:butt;stroke-linejoin:miter;stroke-opacity:1"
       d="m 153.66492,134.03047 c 4.11128,-4.51201 9.52719,-7.8346 17.54621,-8.78396 v 8.78396 z"
       id="path1163-1-7-9-1" />
    <path
       style="fill:#4cb6c2;fill-opacity:1;stroke:#000000;stroke-width:0.264583px;stroke-linecap:butt;stroke-linejoin:miter;stroke-opacity:1"
       d="m 116.16488,128.54605 4.07573,-2.60914 26.22835,41.64656 -0.6232,15.90187 z"
       id="path1165-2-9-2-9" />
    <path
       id="path1161-9-8-2-4"
       style="fill:#4cb6c2;fill-opacity:1;stroke:none;stroke-width:0.264583px;stroke-linecap:butt;stroke-linejoin:miter;stroke-opacity:1"
       d="m 151.60095,137.99922 -2.26599,57.79079 h 25.50231 v -57.79079 z" />
    <path
       id="path1167-7-2-8-7"
       style="fill:#4cb6c2;fill-opacity:1;stroke:none;stroke-width:0.264583px;stroke-linecap:butt;stroke-linejoin:miter;stroke-opacity:1"
       d="m 149.17941,199.75876 -0.15608,3.96875 h 25.81394 v -3.96875 z" />
  </g>
</svg>
